<?xml version="1.0" encoding="UTF-8" standalone="no"?>
<svg
   xmlns:dc="http://purl.org/dc/elements/1.1/"
   xmlns:cc="http://creativecommons.org/ns#"
   xmlns:rdf="http://www.w3.org/1999/02/22-rdf-syntax-ns#"
   xmlns:svg="http://www.w3.org/2000/svg"
   xmlns="http://www.w3.org/2000/svg"
   xmlns:sodipodi="http://sodipodi.sourceforge.net/DTD/sodipodi-0.dtd"
   xmlns:inkscape="http://www.inkscape.org/namespaces/inkscape"
   viewBox="-150 -150 306 306"
   id="svg2"
   version="1.1"
   inkscape:version="0.91 r13725"
   sodipodi:docname="mc_circle_adaptive.svg"
   width="306"
   height="306">
  <metadata
     id="metadata298">
    <rdf:RDF>
      <cc:Work
         rdf:about="">
        <dc:format>image/svg+xml</dc:format>
        <dc:type
           rdf:resource="http://purl.org/dc/dcmitype/StillImage" />
        <dc:title></dc:title>
      </cc:Work>
    </rdf:RDF>
  </metadata>
  <defs
     id="defs296" />
  <sodipodi:namedview
     pagecolor="#ffffff"
     bordercolor="#666666"
     borderopacity="1"
     objecttolerance="10"
     gridtolerance="10"
     guidetolerance="10"
     inkscape:pageopacity="0"
     inkscape:pageshadow="2"
     inkscape:window-width="686"
     inkscape:window-height="480"
     id="namedview294"
     showgrid="false"
     fit-margin-top="0"
     fit-margin-left="0"
     fit-margin-right="0"
     fit-margin-bottom="0"
     inkscape:zoom="0.78666667"
     inkscape:cx="153"
     inkscape:cy="153"
     inkscape:window-x="0"
     inkscape:window-y="0"
     inkscape:window-maximized="0"
     inkscape:current-layer="svg2" />
  <rect
     width="50"
     style="fill:none;stroke:#808080"
     height="50"
     y="-147"
     x="-147"
     id="rect4" />
  <rect
     width="50"
     style="fill:none;stroke:#808080"
     height="50"
     y="-97"
     x="-147"
     id="rect6" />
  <rect
     width="50"
     style="fill:none;stroke:#808080"
     height="50"
     y="-47"
     x="-147"
     id="rect8" />
  <rect
     width="50"
     style="fill:none;stroke:#808080"
     height="50"
     y="3"
     x="-147"
     id="rect10" />
  <rect
     width="50"
     style="fill:none;stroke:#808080"
     height="50"
     y="53"
     x="-147"
     id="rect12" />
  <rect
     width="50"
     style="fill:none;stroke:#808080"
     height="50"
     y="103"
     x="-147"
     id="rect14" />
  <rect
     width="50"
     style="fill:none;stroke:#808080"
     height="50"
     y="-147"
     x="-97"
     id="rect16" />
  <rect
     width="50"
     style="fill:none;stroke:#808080"
     height="50"
     y="-97"
     x="-97"
     id="rect18" />
  <rect
     width="50"
     style="fill:none;stroke:#808080"
     height="50"
     y="-47"
     x="-97"
     id="rect20" />
  <rect
     width="50"
     style="fill:none;stroke:#808080"
     height="50"
     y="3"
     x="-97"
     id="rect22" />
  <rect
     width="50"
     style="fill:none;stroke:#808080"
     height="50"
     y="53"
     x="-97"
     id="rect24" />
  <rect
     width="50"
     style="fill:none;stroke:#808080"
     height="50"
     y="103"
     x="-97"
     id="rect26" />
  <rect
     width="50"
     style="fill:none;stroke:#808080"
     height="50"
     y="-147"
     x="-47"
     id="rect28" />
  <rect
     width="50"
     style="fill:none;stroke:#808080"
     height="50"
     y="-97"
     x="-47"
     id="rect30" />
  <rect
     width="50"
     style="fill:none;stroke:#808080"
     height="50"
     y="-47"
     x="-47"
     id="rect32" />
  <rect
     width="50"
     style="fill:none;stroke:#808080"
     height="50"
     y="3"
     x="-47"
     id="rect34" />
  <rect
     width="50"
     style="fill:none;stroke:#808080"
     height="50"
     y="53"
     x="-47"
     id="rect36" />
  <rect
     width="50"
     style="fill:none;stroke:#808080"
     height="50"
     y="103"
     x="-47"
     id="rect38" />
  <rect
     width="50"
     style="fill:none;stroke:#808080"
     height="50"
     y="-147"
     x="3"
     id="rect40" />
  <rect
     width="50"
     style="fill:none;stroke:#808080"
     height="50"
     y="-97"
     x="3"
     id="rect42" />
  <rect
     width="50"
     style="fill:none;stroke:#808080"
     height="50"
     y="-47"
     x="3"
     id="rect44" />
  <rect
     width="50"
     style="fill:none;stroke:#808080"
     height="50"
     y="3"
     x="3"
     id="rect46" />
  <rect
     width="50"
     style="fill:none;stroke:#808080"
     height="50"
     y="53"
     x="3"
     id="rect48" />
  <rect
     width="50"
     style="fill:none;stroke:#808080"
     height="50"
     y="103"
     x="3"
     id="rect50" />
  <rect
     width="50"
     style="fill:none;stroke:#808080"
     height="50"
     y="-147"
     x="53"
     id="rect52" />
  <rect
     width="50"
     style="fill:none;stroke:#808080"
     height="50"
     y="-97"
     x="53"
     id="rect54" />
  <rect
     width="50"
     style="fill:none;stroke:#808080"
     height="50"
     y="-47"
     x="53"
     id="rect56" />
  <rect
     width="50"
     style="fill:none;stroke:#808080"
     height="50"
     y="3"
     x="53"
     id="rect58" />
  <rect
     width="50"
     style="fill:none;stroke:#808080"
     height="50"
     y="53"
     x="53"
     id="rect60" />
  <rect
     width="50"
     style="fill:none;stroke:#808080"
     height="50"
     y="103"
     x="53"
     id="rect62" />
  <rect
     width="50"
     style="fill:none;stroke:#808080"
     height="50"
     y="-147"
     x="103"
     id="rect64" />
  <rect
     width="50"
     style="fill:none;stroke:#808080"
     height="50"
     y="-97"
     x="103"
     id="rect66" />
  <rect
     width="50"
     style="fill:none;stroke:#808080"
     height="50"
     y="-47"
     x="103"
     id="rect68" />
  <rect
     width="50"
     style="fill:none;stroke:#808080"
     height="50"
     y="3"
     x="103"
     id="rect70" />
  <rect
     width="50"
     style="fill:none;stroke:#808080"
     height="50"
     y="53"
     x="103"
     id="rect72" />
  <rect
     width="50"
     style="fill:none;stroke:#808080"
     height="50"
     y="103"
     x="103"
     id="rect74" />
  <circle
     cx="-147"
     style="fill:#ffffff;stroke:#000000"
     r="2.5"
     cy="-147"
     id="circle76" />
  <circle
     cx="-147"
     style="fill:#ffffff;stroke:#000000"
     r="2.5"
     cy="-97"
     id="circle78" />
  <circle
     cx="-147"
     style="fill:#ffffff;stroke:#000000"
     r="2.5"
     cy="-47"
     id="circle80" />
  <circle
     cx="-147"
     style="fill:#ffffff;stroke:#000000"
     r="2.5"
     cy="3"
     id="circle82" />
  <circle
     cx="-147"
     style="fill:#ffffff;stroke:#000000"
     r="2.5"
     cy="53"
     id="circle84" />
  <circle
     cx="-147"
     style="fill:#ffffff;stroke:#000000"
     r="2.5"
     cy="103"
     id="circle86" />
  <circle
     cx="-147"
     style="fill:#ffffff;stroke:#000000"
     r="2.5"
     cy="153"
     id="circle88" />
  <circle
     cx="-97"
     style="fill:#ffffff;stroke:#000000"
     r="2.5"
     cy="-147"
     id="circle90" />
  <circle
     cx="-97"
     style="fill:#ffffff;stroke:#000000"
     r="2.5"
     cy="-97"
     id="circle92" />
  <circle
     cx="-97"
     style="fill:#000000;stroke:#000000"
     r="2.5"
     cy="-47"
     id="circle94" />
  <circle
     cx="-97"
     style="fill:#000000;stroke:#000000"
     r="2.5"
     cy="3"
     id="circle96" />
  <circle
     cx="-97"
     style="fill:#000000;stroke:#000000"
     r="2.5"
     cy="53"
     id="circle98" />
  <circle
     cx="-97"
     style="fill:#ffffff;stroke:#000000"
     r="2.5"
     cy="103"
     id="circle100" />
  <circle
     cx="-97"
     style="fill:#ffffff;stroke:#000000"
     r="2.5"
     cy="153"
     id="circle102" />
  <circle
     cx="-47"
     style="fill:#ffffff;stroke:#000000"
     r="2.5"
     cy="-147"
     id="circle104" />
  <circle
     cx="-47"
     style="fill:#000000;stroke:#000000"
     r="2.5"
     cy="-97"
     id="circle106" />
  <circle
     cx="-47"
     style="fill:#000000;stroke:#000000"
     r="2.5"
     cy="-47"
     id="circle108" />
  <circle
     cx="-47"
     style="fill:#000000;stroke:#000000"
     r="2.5"
     cy="3"
     id="circle110" />
  <circle
     cx="-47"
     style="fill:#000000;stroke:#000000"
     r="2.5"
     cy="53"
     id="circle112" />
  <circle
     cx="-47"
     style="fill:#000000;stroke:#000000"
     r="2.5"
     cy="103"
     id="circle114" />
  <circle
     cx="-47"
     style="fill:#ffffff;stroke:#000000"
     r="2.5"
     cy="153"
     id="circle116" />
  <circle
     cx="3"
     style="fill:#ffffff;stroke:#000000"
     r="2.5"
     cy="-147"
     id="circle118" />
  <circle
     cx="3"
     style="fill:#000000;stroke:#000000"
     r="2.5"
     cy="-97"
     id="circle120" />
  <circle
     cx="3"
     style="fill:#000000;stroke:#000000"
     r="2.5"
     cy="-47"
     id="circle122" />
  <circle
     cx="3"
     style="fill:#000000;stroke:#000000"
     r="2.5"
     cy="3"
     id="circle124" />
  <circle
     cx="3"
     style="fill:#000000;stroke:#000000"
     r="2.5"
     cy="53"
     id="circle126" />
  <circle
     cx="3"
     style="fill:#000000;stroke:#000000"
     r="2.5"
     cy="103"
     id="circle128" />
  <circle
     cx="3"
     style="fill:#ffffff;stroke:#000000"
     r="2.5"
     cy="153"
     id="circle130" />
  <circle
     cx="53"
     style="fill:#ffffff;stroke:#000000"
     r="2.5"
     cy="-147"
     id="circle132" />
  <circle
     cx="53"
     style="fill:#000000;stroke:#000000"
     r="2.5"
     cy="-97"
     id="circle134" />
  <circle
     cx="53"
     style="fill:#000000;stroke:#000000"
     r="2.5"
     cy="-47"
     id="circle136" />
  <circle
     cx="53"
     style="fill:#000000;stroke:#000000"
     r="2.5"
     cy="3"
     id="circle138" />
  <circle
     cx="53"
     style="fill:#000000;stroke:#000000"
     r="2.5"
     cy="53"
     id="circle140" />
  <circle
     cx="53"
     style="fill:#000000;stroke:#000000"
     r="2.5"
     cy="103"
     id="circle142" />
  <circle
     cx="53"
     style="fill:#ffffff;stroke:#000000"
     r="2.5"
     cy="153"
     id="circle144" />
  <circle
     cx="103"
     style="fill:#ffffff;stroke:#000000"
     r="2.5"
     cy="-147"
     id="circle146" />
  <circle
     cx="103"
     style="fill:#ffffff;stroke:#000000"
     r="2.5"
     cy="-97"
     id="circle148" />
  <circle
     cx="103"
     style="fill:#000000;stroke:#000000"
     r="2.5"
     cy="-47"
     id="circle150" />
  <circle
     cx="103"
     style="fill:#000000;stroke:#000000"
     r="2.5"
     cy="3"
     id="circle152" />
  <circle
     cx="103"
     style="fill:#000000;stroke:#000000"
     r="2.5"
     cy="53"
     id="circle154" />
  <circle
     cx="103"
     style="fill:#ffffff;stroke:#000000"
     r="2.5"
     cy="103"
     id="circle156" />
  <circle
     cx="103"
     style="fill:#ffffff;stroke:#000000"
     r="2.5"
     cy="153"
     id="circle158" />
  <circle
     cx="153"
     style="fill:#ffffff;stroke:#000000"
     r="2.5"
     cy="-147"
     id="circle160" />
  <circle
     cx="153"
     style="fill:#ffffff;stroke:#000000"
     r="2.5"
     cy="-97"
     id="circle162" />
  <circle
     cx="153"
     style="fill:#ffffff;stroke:#000000"
     r="2.5"
     cy="-47"
     id="circle164" />
  <circle
     cx="153"
     style="fill:#ffffff;stroke:#000000"
     r="2.5"
     cy="3"
     id="circle166" />
  <circle
     cx="153"
     style="fill:#ffffff;stroke:#000000"
     r="2.5"
     cy="53"
     id="circle168" />
  <circle
     cx="153"
     style="fill:#ffffff;stroke:#000000"
     r="2.5"
     cy="103"
     id="circle170" />
  <circle
     cx="153"
     style="fill:#ffffff;stroke:#000000"
     r="2.5"
     cy="153"
     id="circle172" />
  <line
     y2="-69.278038"
     x2="-97"
     x1="-111.24796"
     y1="-47"
     style="stroke:#ff0000;stroke-width:2"
     id="line174" />
  <line
     y2="3"
     x2="-122"
     x1="-111.24796"
     y1="-47"
     style="stroke:#ff0000;stroke-width:2"
     id="line176" />
  <line
     y2="53"
     x2="-111.24796"
     x1="-122"
     y1="3"
     style="stroke:#ff0000;stroke-width:2"
     id="line178" />
  <line
     y2="53"
     x2="-111.24796"
     x1="-97"
     y1="75.278038"
     style="stroke:#ff0000;stroke-width:2"
     id="line180" />
  <line
     y2="-111.24796"
     x2="-47"
     x1="-69.278038"
     y1="-97"
     style="stroke:#ff0000;stroke-width:2"
     id="line182" />
  <line
     y2="-97"
     x2="-69.278038"
     x1="-97"
     y1="-69.278038"
     style="stroke:#ff0000;stroke-width:2"
     id="line184" />
  <line
     y2="103"
     x2="-69.278038"
     x1="-97"
     y1="75.278038"
     style="stroke:#ff0000;stroke-width:2"
     id="line186" />
  <line
     y2="103"
     x2="-69.278038"
     x1="-47"
     y1="117.24796"
     style="stroke:#ff0000;stroke-width:2"
     id="line188" />
  <line
     y2="-122"
     x2="3"
     x1="-47"
     y1="-111.24796"
     style="stroke:#ff0000;stroke-width:2"
     id="line190" />
  <line
     y2="117.24796"
     x2="-47"
     x1="3"
     y1="128"
     style="stroke:#ff0000;stroke-width:2"
     id="line192" />
  <line
     y2="-111.24796"
     x2="53"
     x1="3"
     y1="-122"
     style="stroke:#ff0000;stroke-width:2"
     id="line194" />
  <line
     y2="128"
     x2="3"
     x1="53"
     y1="117.24796"
     style="stroke:#ff0000;stroke-width:2"
     id="line196" />
  <line
     y2="-97"
     x2="75.278038"
     x1="53"
     y1="-111.24796"
     style="stroke:#ff0000;stroke-width:2"
     id="line198" />
  <line
     y2="-97"
     x2="75.278038"
     x1="103"
     y1="-69.278038"
     style="stroke:#ff0000;stroke-width:2"
     id="line200" />
  <line
     y2="103"
     x2="75.278038"
     x1="103"
     y1="75.278038"
     style="stroke:#ff0000;stroke-width:2"
     id="line202" />
  <line
     y2="117.24796"
     x2="53"
     x1="75.278038"
     y1="103"
     style="stroke:#ff0000;stroke-width:2"
     id="line204" />
  <line
     y2="-47"
     x2="117.24796"
     x1="103"
     y1="-69.278038"
     style="stroke:#ff0000;stroke-width:2"
     id="line206" />
  <line
     y2="3"
     x2="128"
     x1="117.24796"
     y1="-47"
     style="stroke:#ff0000;stroke-width:2"
     id="line208" />
  <line
     y2="53"
     x2="117.24796"
     x1="128"
     y1="3"
     style="stroke:#ff0000;stroke-width:2"
     id="line210" />
  <line
     y2="75.278038"
     x2="103"
     x1="117.24796"
     y1="53"
     style="stroke:#ff0000;stroke-width:2"
     id="line212" />
  <rect
     width="5"
     style="fill:#ff0000"
     height="5"
     y="-49.5"
     x="-113.74796"
     id="rect214" />
  <rect
     width="5"
     style="fill:#ff0000"
     height="5"
     y="-71.778038"
     x="-99.5"
     id="rect216" />
  <rect
     width="5"
     style="fill:#ff0000"
     height="5"
     y="-49.5"
     x="-113.74796"
     id="rect218" />
  <rect
     width="5"
     style="fill:#ff0000"
     height="5"
     y="0.5"
     x="-124.5"
     id="rect220" />
  <rect
     width="5"
     style="fill:#ff0000"
     height="5"
     y="0.5"
     x="-124.5"
     id="rect222" />
  <rect
     width="5"
     style="fill:#ff0000"
     height="5"
     y="50.5"
     x="-113.74796"
     id="rect224" />
  <rect
     width="5"
     style="fill:#ff0000"
     height="5"
     y="72.778038"
     x="-99.5"
     id="rect226" />
  <rect
     width="5"
     style="fill:#ff0000"
     height="5"
     y="50.5"
     x="-113.74796"
     id="rect228" />
  <rect
     width="5"
     style="fill:#ff0000"
     height="5"
     y="-99.5"
     x="-71.778038"
     id="rect230" />
  <rect
     width="5"
     style="fill:#ff0000"
     height="5"
     y="-113.74796"
     x="-49.5"
     id="rect232" />
  <rect
     width="5"
     style="fill:#ff0000"
     height="5"
     y="-71.778038"
     x="-99.5"
     id="rect234" />
  <rect
     width="5"
     style="fill:#ff0000"
     height="5"
     y="-99.5"
     x="-71.778038"
     id="rect236" />
  <rect
     width="5"
     style="fill:#ff0000"
     height="5"
     y="72.778038"
     x="-99.5"
     id="rect238" />
  <rect
     width="5"
     style="fill:#ff0000"
     height="5"
     y="100.5"
     x="-71.778038"
     id="rect240" />
  <rect
     width="5"
     style="fill:#ff0000"
     height="5"
     y="114.74796"
     x="-49.5"
     id="rect242" />
  <rect
     width="5"
     style="fill:#ff0000"
     height="5"
     y="100.5"
     x="-71.778038"
     id="rect244" />
  <rect
     width="5"
     style="fill:#ff0000"
     height="5"
     y="-113.74796"
     x="-49.5"
     id="rect246" />
  <rect
     width="5"
     style="fill:#ff0000"
     height="5"
     y="-124.5"
     x="0.5"
     id="rect248" />
  <rect
     width="5"
     style="fill:#ff0000"
     height="5"
     y="125.5"
     x="0.5"
     id="rect250" />
  <rect
     width="5"
     style="fill:#ff0000"
     height="5"
     y="114.74796"
     x="-49.5"
     id="rect252" />
  <rect
     width="5"
     style="fill:#ff0000"
     height="5"
     y="-124.5"
     x="0.5"
     id="rect254" />
  <rect
     width="5"
     style="fill:#ff0000"
     height="5"
     y="-113.74796"
     x="50.5"
     id="rect256" />
  <rect
     width="5"
     style="fill:#ff0000"
     height="5"
     y="114.74796"
     x="50.5"
     id="rect258" />
  <rect
     width="5"
     style="fill:#ff0000"
     height="5"
     y="125.5"
     x="0.5"
     id="rect260" />
  <rect
     width="5"
     style="fill:#ff0000"
     height="5"
     y="-113.74796"
     x="50.5"
     id="rect262" />
  <rect
     width="5"
     style="fill:#ff0000"
     height="5"
     y="-99.5"
     x="72.778038"
     id="rect264" />
  <rect
     width="5"
     style="fill:#ff0000"
     height="5"
     y="-71.778038"
     x="100.5"
     id="rect266" />
  <rect
     width="5"
     style="fill:#ff0000"
     height="5"
     y="-99.5"
     x="72.778038"
     id="rect268" />
  <rect
     width="5"
     style="fill:#ff0000"
     height="5"
     y="72.778038"
     x="100.5"
     id="rect270" />
  <rect
     width="5"
     style="fill:#ff0000"
     height="5"
     y="100.5"
     x="72.778038"
     id="rect272" />
  <rect
     width="5"
     style="fill:#ff0000"
     height="5"
     y="100.5"
     x="72.778038"
     id="rect274" />
  <rect
     width="5"
     style="fill:#ff0000"
     height="5"
     y="114.74796"
     x="50.5"
     id="rect276" />
  <rect
     width="5"
     style="fill:#ff0000"
     height="5"
     y="-71.778038"
     x="100.5"
     id="rect278" />
  <rect
     width="5"
     style="fill:#ff0000"
     height="5"
     y="-49.5"
     x="114.74796"
     id="rect280" />
  <rect
     width="5"
     style="fill:#ff0000"
     height="5"
     y="-49.5"
     x="114.74796"
     id="rect282" />
  <rect
     width="5"
     style="fill:#ff0000"
     height="5"
     y="0.5"
     x="125.5"
     id="rect284" />
  <rect
     width="5"
     style="fill:#ff0000"
     height="5"
     y="0.5"
     x="125.5"
     id="rect286" />
  <rect
     width="5"
     style="fill:#ff0000"
     height="5"
     y="50.5"
     x="114.74796"
     id="rect288" />
  <rect
     width="5"
     style="fill:#ff0000"
     height="5"
     y="50.5"
     x="114.74796"
     id="rect290" />
  <rect
     width="5"
     style="fill:#ff0000"
     height="5"
     y="72.778038"
     x="100.5"
     id="rect292" />
</svg>
